<svg width="340" height="340" viewBox="0 0 340 340" fill="none" xmlns="http://www.w3.org/2000/svg">
<g clip-path="url(#clip0_684_176)">
<path d="M0 75C0 33.5786 33.5786 0 75 0H265C306.421 0 340 33.5786 340 75V265C340 306.421 306.421 340 265 340H75C33.5786 340 0 306.421 0 265V75Z" fill="white"/>
<path d="M226.2 194.7C226.2 240 193.8 246 164.1 246C151.8 246 135.3 243 120 238.5V204.6C139.2 209.7 154.5 212.7 162 212.7C175.5 212.7 185.4 209.7 185.4 198.3C185.4 188.4 176.1 184.8 164.7 180.6L152.1 176.1C135.9 170.4 117 159 117 130.5C117 91.2 147.3 81 178.8 81C191.7 81 207 83.7 219.6 88.5V121.2C203.7 117 187.8 114 180.6 114C164.4 114 157.5 117.9 157.5 127.5C157.5 136.8 166.8 140.1 179.7 144.9L194.7 150.6C210.9 156.9 226.2 168.9 226.2 194.7Z" fill="url(#paint0_linear_684_176)"/>
</g>
<defs>
<linearGradient id="paint0_linear_684_176" x1="108" y1="202.5" x2="189" y2="202.5" gradientUnits="userSpaceOnUse">
<stop stop-color="#4C05FF"/>
<stop offset="1" stop-color="#C820C8"/>
</linearGradient>
<clipPath id="clip0_684_176">
<rect width="340" height="340" fill="white"/>
</clipPath>
</defs>
</svg>
